<?xml version="1.0" encoding="UTF-8"?>
<svg id="Layer_1" data-name="Layer 1" xmlns="http://www.w3.org/2000/svg" viewBox="0 0 869.25 412.14">
  <defs>
    <style>
      .cls-1 {
        fill: none;
        stroke: #464744;
        stroke-miterlimit: 10;
        stroke-width: 20px;
      }

      .cls-2 {
        fill: #464744;
      }
    </style>
  </defs>
  <ellipse class="cls-1" cx="434.62" cy="206.07" rx="424.62" ry="196.07"/>
  <g>
    <path class="cls-2" d="M126.15,313.86c-3.28-2-7.83-5.32-13.67-9.79-5.84-4.47-11.76-9.13-17.54-14.1-5.78-4.97-11.97-10.64-18.02-17.17s-10.65-12.43-14.11-17.76c-3.45-5.31-6.48-10.99-8.85-17.05-.43-1.11-.64-1.66-1.04-2.78,4.85.78,7.34,1.17,12.46,1.93,2.67,8.66,7.76,18.07,13.5,25.08,4.54,5.54,8.77,8.97,12.33,10.06,1.11.34,1.67.51,2.79.84,1.8.54,3.17.47,4.13-.29.95-.76,1.19-2.26.77-4.48-.41-2.2-1-4.53-1.77-6.9-.77-2.4-1.82-5.32-3.05-8.79-1.76-4.97-3.1-8.93-4.32-11.86-1.22-2.91-2.87-5.57-5-7.92-2.13-2.35-4.78-3.87-7.95-4.58-1.66-.28-2.49-.41-4.13-.69-1.28-.36-1.91-.54-3.18-.9-25.54-7.06-18.7-42.57-11.82-60.09.42-.87.64-1.3,1.08-2.17,3.16-6.16,6.89-11.73,10.85-16.81,3.95-5.07,8.67-10.21,14.08-15.49,5.42-5.27,10.71-9.84,15.51-13.78,4.8-3.95,9.58-7.63,14.21-11.11,4.63-3.48,8.38-6.17,11.28-7.94,1.21-.73,1.81-1.1,3.04-1.83,3.06-1.82,4.54-2.18,4.64-.95.1,1.23-.73,3.55-2.38,6.95-1.65,3.4-4.08,8.01-6.98,13.94-2.89,5.91-5.68,12.16-8.38,18.62-2.71,6.47-5.34,13.45-7.76,20.91-.44,1.36-.65,2.04-1.06,3.41-5.72.87-8.53,1.31-14.01,2.21.79-2.58,1.47-4.65,1.96-6.23.49-1.58,1.07-3.76,1.85-6.5.78-2.74,1.27-4.87,1.41-6.43.14-1.56-.15-2.8-.87-3.69-.72-.89-1.82-1.09-3.34-.62-.73.22-1.09.33-1.82.56-2.62.81-5.28,2.43-7.98,4.79-2.7,2.36-4.79,4.57-6.27,6.65-1.47,2.08-3.19,4.93-4.95,8.59-1.66,3.46-2.67,6.3-3.16,8.49-.49,2.19-.33,4.13.48,5.83.8,1.69,2.56,2.41,5.19,2.07,1.16-.03,1.75-.04,2.93-.07,1.52-.07,2.29-.1,3.83-.16,7.56-.07,11.96,5.25,14.46,16.51,3.97,17.89,6,36.41,10.3,54.46.47,1.8.72,2.69,1.24,4.48,2.61,8.9,5.49,16.67,8.2,23.31,2.71,6.64,5.6,13.25,8.75,19.67,3.15,6.42,5.8,11.41,7.57,15.04,1.77,3.62,2.66,6.09,2.54,7.39-.12,1.3-1.68.91-4.89-1-1.25-.74-1.86-1.11-3.09-1.86Z"/>
    <path class="cls-2" d="M180.01,72.09c.71-.28,1.07-.43,1.78-.71,3.57-1.41,5.91-1.19,7.2.78,1.29,1.97,1.76,5.12,1.49,9.49-.27,4.37-1.15,10.13-2.43,17.4-1.27,7.25-2.56,14.87-3.91,22.77-1.35,7.91-2.72,16.68-3.94,26.3-1.23,9.64-2.02,18.44-2.65,26.28-.63,7.84-1.1,16.18-1.29,25.01-.11,4.97-.11,7.48-.02,12.45.16,8.55.58,16.76,1.18,24.6s1.37,16.8,2.62,26.72c1.25,9.92,2.66,18.82,4.02,26.73,1.36,7.91,2.65,15.61,3.95,22.98,1.3,7.41,2.24,13.27,2.59,17.77.35,4.5-.05,7.76-1.28,9.84-1.23,2.08-3.52,2.35-7.09.93-.71-.28-1.07-.43-1.78-.71-3.55-1.43-7.77-4.28-12.69-8.41-4.93-4.13-9.92-8.82-14.86-14.13-4.94-5.31-10.22-11.51-15.56-18.74-5.33-7.21-9.99-14.33-13.91-21.42-3.92-7.09-7.58-14.87-10.66-23.41-3.08-8.54-5.04-16.16-6.25-22.81s-1.98-13.59-2.2-20.84c-.13-4.21-.12-6.34.02-10.54.26-7.48,1.09-14.48,2.32-21,1.23-6.52,3.2-14.02,6.27-22.45,3.07-8.41,6.72-16.14,10.65-23.22,3.93-7.09,8.57-14.15,13.82-21.24,5.26-7.1,10.48-13.2,15.36-18.4,4.88-5.2,9.8-9.79,14.65-13.81,4.85-4.02,9.02-6.8,12.58-8.22ZM159.02,207.94c-.02-2.16-.01-3.25.02-5.41.1-7.19.31-14,.55-20.39.24-6.37.45-12.97.68-19.69.24-6.73.32-12.34.05-16.83-.27-4.51-1.08-8.21-2.59-10.74-1.16-1.93-3.23-3.15-5.26-2.99-.64.05-1.36.25-1.98.36-24.74,9.17-29.57,48.96-30.88,70.59-.03,1.67-.03,2.51-.03,4.18.04,8.61.94,16.63,2.46,24.12,1.52,7.5,3.85,15.04,6.95,22.66,3.1,7.62,6.96,13.7,10.87,18.29,3.81,4.47,7.58,7.47,11,8.22.44.1.98.22,1.49.27,2.77.3,5.05-1.58,6.34-5,1.45-3.88,1.97-9.72,1.74-17.47-.24-7.78-.49-15.76-.78-23.87-.29-8.1-.55-16.88-.62-26.3Z"/>
    <path class="cls-2" d="M262.08,49.91c6.2-1.36,9.34-2.02,15.7-3.26-14.14,49.74-21.6,99.86-22.93,151.54-.2,13.89-.15,27.78.15,41.67.32,14.76.72,29.56,1.33,44.27.55,13.16,1.25,26.4,1.63,39.59.32,11.08-.21,19.75-1.79,26.15-1.58,6.4-4.5,8.89-9.21,7.75-.94-.23-1.42-.34-2.36-.57-3.6-.88-7.55-3.52-11.89-7.79-4.32-4.25-8.68-9.57-12.93-15.98-4.25-6.41-8.61-14.01-12.87-22.69-4.23-8.61-8.06-17.85-11.14-26.9-3.23-9.49-6.01-19.61-8.07-29.41-1.98-9.41-3.54-19.36-4.31-29-.71-8.86-1-17.72-.81-26.38,2.04-48.26,13.19-93.14,33.3-137.02,5.71-1.72,8.62-2.56,14.5-4.17-17.87,43.57-27.98,87.77-30.59,134.8-.46,10.26-.09,20.95.93,31.1.93,9.25,2.62,18.94,4.94,27.97,2.36,9.17,5.35,16.48,8.76,21.91s6.89,8.35,10.36,8.71c3.48.37,5.98-1.93,7.67-7.03,1.69-5.09,2.57-12.31,2.92-21.75.36-9.65.61-19.33.75-28.99.16-10.87.38-21.74.66-32.6,2.08-48.67,10.37-95.57,25.31-141.93Z"/>
    <path class="cls-2" d="M285.25,47.24c7.24-1.31,10.91-1.92,18.32-3.07-2.99,70.05,7.17,139.21,22.15,207.49-2.62-71.11,1.29-141.77,12.33-212.07,6.78-.75,10.2-1.1,17.1-1.72-14.22,112.13-14.19,225.19.12,337.31-6.88-.63-10.3-.97-17.07-1.73-24.28-72.42-44.36-145.68-53.39-221.68-4.88,73.1.5,145.29,16.81,216.73-6.53-1.04-9.76-1.59-16.14-2.75-27.61-105.12-27.69-213.34-.23-318.51Z"/>
    <path class="cls-2" d="M364.22,35.75c12.64-1.02,25.31-1.75,37.98-2.21,5.42-.2,10.26,1.66,14.58,5.56,4.33,3.91,8,9.77,10.99,17.57,3,7.83,5.66,16.73,7.98,26.66,2.61,11.17,4.21,22.68,5.4,33.94,1.31,12.42,2.18,25.21,2.84,37.79.71,13.56.92,27.27.92,40.91,0,5.79,0,8.71,0,14.51-.1,16.05-.31,32.22-1.15,48.11-.8,15.08-2.36,30.36-4.34,45.41-1.71,13-4.35,26.15-7.85,38.71-2.38,8.55-6.69,18.39-12.18,25.53-5.02,6.53-10.66,9.7-17.15,9.46-12.72-.46-25.43-1.19-38.12-2.2-12.66-113-12.63-226.74.11-339.73ZM376.83,112.91c-2.6,61.47-2.63,122.89-.09,184.37,8.21.23,12.35.32,20.67.47,30.08-.61,25.26-75.12,25.43-91.42,0-1.25,0-1.87,0-3.11-.17-16.25,4.61-90.23-25.38-90.79-8.31.15-12.43.25-20.64.48Z"/>
    <path class="cls-2" d="M486.75,382.63c-4.56.28-8.56-1.55-12.13-5.49-3.57-3.95-6.57-9.12-8.99-15.56-2.42-6.45-4.55-14.46-6.46-24.13-1.94-9.81-3.45-19.95-4.49-29.89-1.14-10.99-2.05-22.14-2.75-33.14-.69-10.88-1.22-21.91-1.46-32.85-.22-10-.34-20.03-.32-30.04,0-5.59,0-8.4,0-13.99.04-14.74.15-29.49.61-44.22.48-15.05,1.59-30.2,3.05-45.06,1.35-13.71,3.28-27.68,6.05-41.16,1.88-9.15,5.52-19.67,10.53-27.7,4.54-7.27,9.87-10.72,16.3-10.32,1.25.08,1.87.12,3.11.2,6.22.41,11.99,4.07,17.54,10.72,5.76,6.9,10.81,16.1,13.99,24.41,4.15,10.85,7.43,22.35,10.17,33.65,2.74,11.31,4.83,23.05,6.26,34.7,1.2,9.79,2.03,19.76,2.39,29.63.08,1.98.12,2.97.19,4.95-8.35-.18-12.56-.25-21.04-.4-.27-3.68-.58-7.01-.93-10-.35-2.97-1.18-7.72-2.51-14.17-1.33-6.45-2.87-11.88-4.6-16.33-1.74-4.46-4.16-8.51-7.24-12.17-3.09-3.67-6.49-5.57-10.26-5.68-4.48-.14-8.22,2.36-11.23,7.5-3.03,5.17-5.24,12.22-6.71,21.14-1.56,9.48-2.53,19.33-3.03,28.9-.58,11.11-.73,22.32-.8,33.5,0,2.48,0,3.72,0,6.2.11,11.21.33,22.45,1.04,33.6.65,10.2,1.71,20.62,3.23,30.75,1.47,9.81,3.7,17.6,6.73,23.43,3.03,5.83,6.82,8.78,11,8.52,21.6-1.35,23.82-45.78,25.42-60.91.07-.33.1-.66.11-1.01,8.49-.12,12.71-.19,21.07-.35-.06,1.99-.09,2.98-.16,4.96-.33,10.46-1.19,21.05-2.45,31.41-1.46,11.99-3.69,23.94-6.38,35.72-2.65,11.6-6.1,23.15-10.26,34.21-3.23,8.59-8.3,17.93-14.07,25.12-5.56,6.93-11.29,10.75-17.41,11.16-1.24.08-1.87.12-3.11.2Z"/>
    <path class="cls-2" d="M534.58,372.61c18.05-110.4,18.07-222.23.08-332.63,6.84.79,10.23,1.22,16.95,2.14,7.63,39.09,12.54,78.31,15.02,118.06,13.42.43,26.85.94,40.27,1.52-3.35-38.7-9.87-76.39-19.92-113.91,6.43,1.19,9.6,1.81,15.88,3.12,31.17,102.31,31.13,208.47-.13,310.75-6.27,1.31-9.45,1.94-15.87,3.13,10.91-40.58,17.65-81.36,20.64-123.27-13.47.46-26.94.87-40.41,1.21-2.21,43.03-7.28,85.47-15.57,127.75-6.71.92-10.1,1.35-16.94,2.14Z"/>
    <path class="cls-2" d="M610.3,51.36c16.82,3.9,33.55,8.1,50.02,13.3,9.58,19.98,17.3,40.08,23.49,61.34-12.97-1.98-25.98-3.75-39.01-5.33,2.92,15.13,5.2,30.17,6.91,45.48,13.18.71,26.35,1.5,39.51,2.39,2.35,22.85,2.61,45.03.8,67.91-13.21.71-26.43,1.35-39.65,1.93-1.55,16.98-3.72,33.77-7.04,50.51,13.29-1.56,26.55-3.31,39.78-5.27-6.21,21.85-14.04,42.45-23.83,62.93-16.7,5.25-33.66,9.48-50.71,13.41,32.99-101.45,32.9-207.2-.28-308.6Z"/>
    <path class="cls-2" d="M691.69,339.3c-3.27,1.34-5.28,1.02-6.22-1.06s-1.09-5.32-.54-9.76c.55-4.44,1.67-10.22,3.14-17.51,1.47-7.26,2.94-14.96,4.44-23.03,1.51-8.07,2.94-16.86,4.16-26.36s2.03-18.4,2.65-26.57c.62-8.14.99-16.33,1.11-24.5.07-4.57.06-6.87-.05-11.43-.49-12.09-1.25-24.05-2.53-36-1.28-12.01-2.95-24.19-5.19-36.07-1.98-10.54-4.23-21.16-6.42-31.69-1.72-8.26-2.45-14.64-2.06-19.14.39-4.48,2.65-5.58,7.27-3.69.89.37,1.34.55,2.23.92,4.45,1.85,9.94,5.83,16.53,11.72,6.57,5.89,13.05,12.45,19.12,19.61,6.46,7.62,12.68,16.1,17.87,24.65,5.62,9.26,9.73,17.5,12.53,24.72,2.79,7.21,4.82,14.19,6.17,20.93.28,1.4.41,2.1.66,3.5-5.98-.53-9.04-.78-15.26-1.28-.55-2.71-1.15-5.15-1.77-7.36-.62-2.19-1.82-5.7-3.79-10.51-1.97-4.81-4.08-8.9-6.21-12.32-2.13-3.42-4.75-6.64-7.81-9.67-3.07-3.05-6.01-4.87-8.81-5.41-3.33-.64-5.52.78-6.7,4.38-1.19,3.62-1.5,8.84-1.2,15.68.3,6.86.76,14.35,1.27,22.44s.96,16.92,1.15,26.45c.04,1.96.05,2.95.05,4.92,0,9.3-.18,18.17-.46,26.55-.28,8.4-.61,16.39-.94,23.92-.33,7.55-.1,13.34,1,17.48,1.09,4.14,3.38,5.97,6.35,5.21,17.1-4.41,24.33-31.49,28.32-47.09.08-.24.13-.49.16-.74,6.24-.44,9.3-.66,15.3-1.12-.22,1.41-.33,2.11-.58,3.51-1.28,7.24-3.35,14.66-6.15,22.21-3.23,8.71-7.82,17.59-12.6,25.46-5.22,8.6-11.44,17.31-17.95,25.06-6.11,7.28-12.68,14.01-19.38,20.1-6.7,6.09-12.24,10.16-16.62,11.98-.89.37-1.34.55-2.23.92Z"/>
    <path class="cls-2" d="M753.77,306.29c20.57-21.34,30.59-41.66,33.74-71.18-1.58.18-2.38.27-3.99.45-6.75,30.92-25.03,56.98-45.94,80-4.01,2.14-6.06,3.2-10.26,5.27,58.71-71.84,60.07-153.96,2.28-226.84,4.24,2.02,6.31,3.04,10.37,5.13,18.19,20.73,31.52,41.37,40.83,67.39,1.81.27,2.71.41,4.49.69-4.27-24-12.98-41.2-29.42-59.33,4.73,2.78,7.01,4.2,11.42,7.09,25.3,23.26,35.05,48.64,32.13,82.95,8.31,41.71-1.86,72.95-34.09,100.89-4.45,3.06-6.76,4.56-11.56,7.5Z"/>
  </g>
</svg>